<svg width="60" height="60" viewBox="0 0 60 60" fill="none" xmlns="http://www.w3.org/2000/svg">
<path d="M30.5 47.6217C26.8181 47.6217 17.7475 40.6197 14.3509 32.6396C14.2431 32.3863 14.2011 32.111 14.2285 31.8381C14.2559 31.5652 14.3519 31.3031 14.508 31.075C14.6641 30.847 14.8755 30.6601 15.1234 30.5308C15.3713 30.4015 15.648 30.334 15.9291 30.3341L22.7524 30.3333L25.662 26.0755C25.8393 25.8159 26.0877 25.6101 26.379 25.4814C26.6703 25.3528 26.9928 25.3065 27.3097 25.3479C27.6266 25.3893 27.9253 25.5167 28.1716 25.7155C28.418 25.9143 28.6022 26.1767 28.7033 26.4727L31.0155 33.2402L32.4953 31.0755C32.6513 30.8473 32.8627 30.6601 33.1106 30.5306C33.3586 30.4012 33.6354 30.3334 33.9166 30.3333H39.0416C39.4947 30.3333 39.9292 30.5089 40.2496 30.8215C40.57 31.1341 40.75 31.558 40.75 32C40.75 32.442 40.57 32.866 40.2496 33.1785C39.9292 33.4911 39.4947 33.6667 39.0416 33.6667H34.8309L31.9213 37.9245C31.744 38.1841 31.4956 38.3899 31.2043 38.5186C30.913 38.6472 30.5905 38.6935 30.2736 38.6521C29.9567 38.6107 29.658 38.4833 29.4116 38.2845C29.1653 38.0857 28.9811 37.8233 28.88 37.5274L26.5678 30.7598L25.088 32.9245C24.9319 33.1527 24.7206 33.3399 24.4727 33.4694C24.2247 33.5988 23.9479 33.6666 23.6666 33.6667L18.6817 33.6675C22.2819 39.7425 28.91 44.2152 30.5066 44.2884C31.7712 44.2298 37.1964 40.8265 40.9852 35.6792C43.249 32.603 45.6497 27.9196 44.2317 23.0799C43.8681 21.8553 43.1212 20.7723 42.0954 19.9824C41.0697 19.1925 39.8164 18.7353 38.5111 18.6748C37.0734 18.6356 35.6629 19.0626 34.5004 19.8888C33.338 20.715 32.489 21.8939 32.0865 23.2411C31.9595 23.5503 31.7405 23.8153 31.4578 24.002C31.175 24.1886 30.8414 24.2884 30.4999 24.2884C30.1585 24.2884 29.8249 24.1886 29.5421 24.002C29.2593 23.8153 29.0404 23.5503 28.9134 23.2411C28.5089 21.8951 27.6595 20.7174 26.4974 19.8915C25.3354 19.0656 23.926 18.6378 22.4888 18.6748C21.1835 18.7353 19.9302 19.1925 18.9045 19.9824C17.8787 20.7723 17.1318 21.8553 16.7682 23.0799C16.5442 23.8464 16.4072 24.6345 16.3595 25.4302C16.3471 25.649 16.2906 25.8633 16.1932 26.0608C16.0959 26.2583 15.9595 26.4352 15.7919 26.5812C15.6244 26.7272 15.429 26.8395 15.2168 26.9117C15.0047 26.9839 14.7801 27.0145 14.5558 27.0019C14.3315 26.9893 14.112 26.9336 13.9098 26.8381C13.7077 26.7425 13.5268 26.609 13.3776 26.4452C13.2283 26.2813 13.1137 26.0904 13.0403 25.8833C12.9668 25.6761 12.936 25.4569 12.9495 25.2381C13.0107 24.1973 13.1891 23.1663 13.4817 22.1636C14.0418 20.2705 15.1944 18.5955 16.7783 17.3731C18.3622 16.1506 20.2981 15.4417 22.3153 15.3455C23.9018 15.2655 25.4833 15.5768 26.9139 16.2507C28.3444 16.9246 29.5777 17.9394 30.5 19.2013C31.4199 17.9371 32.6529 16.9206 34.0839 16.2464C35.515 15.5722 37.0977 15.2623 38.6846 15.3455C40.7018 15.4417 42.6378 16.1506 44.2217 17.3731C45.8056 18.5955 46.9582 20.2705 47.5182 22.1636C49.38 28.5259 46.267 34.3934 43.3275 38.1963C39.5138 43.1288 33.3995 47.6217 30.5 47.6217Z" fill="#3B58BF"/>
<rect x="1.5" y="1.5" width="57" height="57" rx="28.5" stroke="#3B58BF" stroke-width="3"/>
</svg>
