<svg width="61" height="57" viewBox="0 0 61 57" fill="none" xmlns="http://www.w3.org/2000/svg">
<g clip-path="url(#clip0_115_107)">
<path d="M7.8335 25H45.3335V21.5H7.8335V25ZM28.4585 46H41.5835V42.5H28.4585V46ZM28.4585 39H45.3335V35.5H28.4585V39ZM28.4585 32H45.3335V28.5H28.4585V32ZM7.8335 46H24.7085V28.5H7.8335V46ZM52.8335 18V11H0.333496V49.5C0.333496 49.5 0.333496 56.5 7.8335 56.5H54.7085C54.7085 56.5 60.3335 56.3915 60.3335 49.5V18H52.8335ZM7.8335 53C4.0835 53 4.0835 49.5 4.0835 49.5V14.5H49.0835V49.5C49.0835 51.1118 49.616 52.2265 50.351 53H7.8335Z" fill="white"/>
</g>
<defs>
<clipPath id="clip0_115_107">
<rect width="60" height="56" fill="white" transform="translate(0.333496 0.5)"/>
</clipPath>
</defs>
</svg>
