<svg width="84" height="84" viewBox="0 0 84 84" fill="none" xmlns="http://www.w3.org/2000/svg">
<path d="M67.7708 33.7L63.102 14.7656C62.8426 13.9875 62.3239 13.4687 61.8051 12.95C49.3551 6.98436 34.8301 6.98436 22.1208 12.95C21.3426 13.2094 20.8239 13.7281 20.5645 14.5062L15.8958 33.7C15.8958 34.2187 15.8958 34.9969 16.4145 35.5156C16.6739 36.0344 17.452 36.5531 17.9708 36.5531C26.0114 38.3687 33.7926 39.1469 41.8333 39.1469C49.8739 39.1469 57.9145 38.3687 65.6958 36.5531C66.4739 36.2937 66.9926 36.0344 67.252 35.5156C67.7707 34.9969 67.7708 34.2187 67.7708 33.7ZM47.0208 26.4375H44.427V29.0312C44.427 30.5875 43.3895 31.625 41.8333 31.625C40.277 31.625 39.2395 30.5875 39.2395 29.0312V26.4375H36.6458C35.0895 26.4375 34.052 25.4 34.052 23.8437C34.052 22.2875 35.0895 21.25 36.6458 21.25H39.2395V18.6562C39.2395 17.1 40.277 16.0625 41.8333 16.0625C43.3895 16.0625 44.427 17.1 44.427 18.6562V21.25H47.0208C48.577 21.25 49.6145 22.2875 49.6145 23.8437C49.6145 25.4 48.577 26.4375 47.0208 26.4375Z" fill="white"/>
<path d="M68.5489 41.2219C68.0302 41.4812 67.5114 41.7406 66.9927 41.7406C58.6927 43.5562 50.1333 44.5937 41.8333 44.5937C33.5333 44.5937 24.9739 43.5562 16.6739 41.7406C16.1552 41.7406 15.6364 41.4812 15.1177 41.2219C13.0427 43.5562 12.5239 47.7062 14.0802 52.1156C15.1177 55.4875 17.1927 58.3406 19.7864 59.6375C20.3052 59.8969 21.0833 60.1562 21.602 60.1562C24.7145 69.4937 32.4958 75.7187 41.8333 75.7187C51.1708 75.7187 58.952 69.4937 62.0645 60.1562C62.8427 60.1562 63.3614 59.8969 64.1395 59.6375C66.4739 58.6 68.8083 55.7469 69.8458 52.1156C70.8833 47.7062 70.3645 43.5562 68.5489 41.2219Z" fill="white"/>
</svg>
