<svg width="60" height="60" viewBox="0 0 60 60" fill="none" xmlns="http://www.w3.org/2000/svg">
<path d="M30.5001 47.6217C26.8182 47.6217 17.7477 40.6197 14.351 32.6396C14.2432 32.3863 14.2012 32.111 14.2286 31.8381C14.256 31.5652 14.352 31.3031 14.5081 31.075C14.6642 30.847 14.8756 30.6601 15.1235 30.5308C15.3714 30.4015 15.6481 30.334 15.9292 30.3341L22.7525 30.3333L25.6621 26.0755C25.8394 25.8159 26.0878 25.6101 26.3791 25.4814C26.6704 25.3528 26.9929 25.3065 27.3098 25.3479C27.6267 25.3893 27.9254 25.5167 28.1718 25.7155C28.4181 25.9143 28.6023 26.1767 28.7034 26.4727L31.0157 33.2402L32.4954 31.0755C32.6515 30.8473 32.8628 30.6601 33.1107 30.5306C33.3587 30.4012 33.6355 30.3334 33.9168 30.3333H39.0418C39.4948 30.3333 39.9294 30.5089 40.2497 30.8215C40.5701 31.1341 40.7501 31.558 40.7501 32C40.7501 32.442 40.5701 32.866 40.2497 33.1785C39.9294 33.4911 39.4948 33.6667 39.0418 33.6667H34.831L31.9214 37.9245C31.7442 38.1841 31.4957 38.3899 31.2044 38.5186C30.9131 38.6472 30.5906 38.6935 30.2737 38.6521C29.9568 38.6107 29.6581 38.4833 29.4118 38.2845C29.1654 38.0857 28.9812 37.8233 28.8801 37.5274L26.5679 30.7598L25.0881 32.9245C24.9321 33.1527 24.7207 33.3399 24.4728 33.4694C24.2248 33.5988 23.948 33.6666 23.6668 33.6667L18.6818 33.6675C22.282 39.7425 28.9101 44.2152 30.5067 44.2884C31.7713 44.2298 37.1966 40.8265 40.9853 35.6792C43.2492 32.603 45.6498 27.9196 44.2318 23.0799C43.8683 21.8553 43.1213 20.7723 42.0956 19.9824C41.0698 19.1925 39.8165 18.7353 38.5112 18.6748C37.0735 18.6356 35.6631 19.0626 34.5006 19.8888C33.3381 20.715 32.4891 21.8939 32.0866 23.2411C31.9596 23.5503 31.7407 23.8153 31.4579 24.002C31.1751 24.1886 30.8415 24.2884 30.5001 24.2884C30.1586 24.2884 29.825 24.1886 29.5422 24.002C29.2595 23.8153 29.0405 23.5503 28.9135 23.2411C28.509 21.8951 27.6596 20.7174 26.4976 19.8915C25.3355 19.0656 23.9261 18.6378 22.489 18.6748C21.1836 18.7353 19.9304 19.1925 18.9046 19.9824C17.8788 20.7723 17.1319 21.8553 16.7684 23.0799C16.5444 23.8464 16.4073 24.6345 16.3596 25.4302C16.3473 25.649 16.2908 25.8633 16.1934 26.0608C16.096 26.2583 15.9596 26.4352 15.792 26.5812C15.6245 26.7272 15.4291 26.8395 15.217 26.9117C15.0049 26.9839 14.7802 27.0145 14.5559 27.0019C14.3317 26.9893 14.1121 26.9336 13.91 26.8381C13.7078 26.7425 13.5269 26.609 13.3777 26.4452C13.2285 26.2813 13.1138 26.0904 13.0404 25.8833C12.9669 25.6761 12.9361 25.4569 12.9496 25.2381C13.0108 24.1973 13.1893 23.1663 13.4818 22.1636C14.0419 20.2705 15.1945 18.5955 16.7784 17.3731C18.3623 16.1506 20.2982 15.4417 22.3155 15.3455C23.9019 15.2655 25.4835 15.5768 26.914 16.2507C28.3445 16.9246 29.5779 17.9394 30.5001 19.2013C31.4201 17.9371 32.653 16.9206 34.0841 16.2464C35.5151 15.5722 37.0978 15.2623 38.6847 15.3455C40.7019 15.4417 42.6379 16.1506 44.2218 17.3731C45.8057 18.5955 46.9583 20.2705 47.5183 22.1636C49.3802 28.5259 46.2671 34.3934 43.3276 38.1963C39.5139 43.1287 33.3996 47.6217 30.5001 47.6217Z" fill="#219653"/>
<rect x="1.5" y="1.5" width="57" height="57" rx="28.5" stroke="#219653" stroke-width="3"/>
</svg>
