<svg width="60" height="60" viewBox="0 0 60 60" fill="none" xmlns="http://www.w3.org/2000/svg">
<path d="M30.5001 47.6219C26.8182 47.6219 17.7477 40.62 14.351 32.6398C14.2432 32.3865 14.2012 32.1112 14.2286 31.8383C14.256 31.5654 14.352 31.3033 14.5081 31.0753C14.6642 30.8472 14.8756 30.6603 15.1235 30.531C15.3714 30.4018 15.6481 30.3342 15.9292 30.3343L22.7525 30.3336L25.6621 26.0758C25.8394 25.8161 26.0878 25.6103 26.3791 25.4817C26.6704 25.353 26.9929 25.3068 27.3098 25.3481C27.6267 25.3895 27.9254 25.5169 28.1718 25.7157C28.4181 25.9146 28.6023 26.1769 28.7034 26.4729L31.0157 33.2405L32.4954 31.0758C32.6515 30.8475 32.8628 30.6603 33.1107 30.5309C33.3587 30.4014 33.6355 30.3336 33.9168 30.3336H39.0418C39.4948 30.3336 39.9294 30.5092 40.2497 30.8217C40.5701 31.1343 40.7501 31.5582 40.7501 32.0002C40.7501 32.4423 40.5701 32.8662 40.2497 33.1787C39.9294 33.4913 39.4948 33.6669 39.0418 33.6669H34.831L31.9214 37.9247C31.7442 38.1843 31.4957 38.3902 31.2044 38.5188C30.9131 38.6475 30.5906 38.6937 30.2737 38.6523C29.9568 38.6109 29.6581 38.4836 29.4118 38.2847C29.1654 38.0859 28.9812 37.8236 28.8801 37.5276L26.5679 30.76L25.0881 32.9247C24.9321 33.153 24.7207 33.3401 24.4728 33.4696C24.2248 33.5991 23.948 33.6668 23.6668 33.6669L18.6818 33.6677C22.282 39.7427 28.9101 44.2154 30.5067 44.2887C31.7713 44.2301 37.1966 40.8267 40.9853 35.6794C43.2492 32.6033 45.6498 27.9198 44.2318 23.0802C43.8683 21.8556 43.1213 20.7725 42.0956 19.9826C41.0698 19.1927 39.8165 18.7355 38.5112 18.675C37.0735 18.6359 35.6631 19.0628 34.5006 19.889C33.3381 20.7153 32.4891 21.8942 32.0866 23.2413C31.9596 23.5505 31.7407 23.8155 31.4579 24.0022C31.1751 24.1889 30.8415 24.2886 30.5001 24.2886C30.1586 24.2886 29.825 24.1889 29.5422 24.0022C29.2595 23.8155 29.0405 23.5505 28.9135 23.2413C28.509 21.8953 27.6596 20.7177 26.4976 19.8917C25.3355 19.0658 23.9261 18.6381 22.489 18.675C21.1836 18.7355 19.9304 19.1927 18.9046 19.9826C17.8788 20.7725 17.1319 21.8555 16.7684 23.0802C16.5444 23.8466 16.4073 24.6348 16.3596 25.4304C16.3473 25.6493 16.2908 25.8636 16.1934 26.0611C16.096 26.2586 15.9596 26.4354 15.792 26.5814C15.6245 26.7274 15.4291 26.8397 15.217 26.9119C15.0049 26.9841 14.7802 27.0148 14.5559 27.0021C14.3317 26.9895 14.1121 26.9338 13.91 26.8383C13.7078 26.7428 13.5269 26.6093 13.3777 26.4454C13.2285 26.2816 13.1138 26.0906 13.0404 25.8835C12.9669 25.6764 12.9361 25.4571 12.9496 25.2384C13.0108 24.1976 13.1893 23.1665 13.4818 22.1638C14.0419 20.2707 15.1945 18.5958 16.7784 17.3733C18.3623 16.1508 20.2982 15.4419 22.3155 15.3458C23.9019 15.2657 25.4835 15.577 26.914 16.251C28.3445 16.9249 29.5779 17.9397 30.5001 19.2016C31.4201 17.9373 32.653 16.9208 34.0841 16.2466C35.5151 15.5724 37.0978 15.2625 38.6847 15.3458C40.7019 15.4419 42.6379 16.1508 44.2218 17.3733C45.8057 18.5958 46.9583 20.2707 47.5183 22.1638C49.3802 28.5261 46.2671 34.3936 43.3276 38.1965C39.5139 43.129 33.3996 47.6219 30.5001 47.6219Z" fill="#F2F2F2"/>
<rect x="1.5" y="1.5" width="57" height="57" rx="28.5" stroke="#F2F2F2" stroke-width="3"/>
</svg>
